<svg width="24" height="24" viewBox="0 0 24 24" fill="none" xmlns="http://www.w3.org/2000/svg">
<path d="M8.8 21V16.9L10.7 17.1C11.2531 17.0693 11.7766 16.8399 12.1742 16.4541C12.5717 16.0683 12.8167 15.552 12.864 15V9.30001C12.8706 7.85936 12.3047 6.47507 11.2907 5.45169C10.2767 4.4283 8.89766 3.84964 7.457 3.84301C6.01634 3.83638 4.63206 4.40232 3.60867 5.41633C2.58529 6.43034 2.00663 7.80936 2 9.25001C2 12.05 2.656 12.304 3 13.8C3.23248 14.7035 3.24243 15.6499 3.029 16.558L2 21M19.8 18.8C21.2058 17.394 21.9958 15.4874 21.9964 13.4991C21.997 11.5109 21.208 9.60379 19.803 8.19701M17 16C17.3272 15.6729 17.5863 15.2842 17.7622 14.8563C17.9382 14.4285 18.0277 13.9699 18.0253 13.5073C18.023 13.0447 17.929 12.5871 17.7487 12.161C17.5684 11.7349 17.3054 11.3488 16.975 11.025" stroke="#CFF394" stroke-width="2" stroke-linecap="round" stroke-linejoin="round"/>
</svg>
