<svg width="123" height="28" viewBox="0 0 123 28" fill="none" xmlns="http://www.w3.org/2000/svg">
<path d="M8.8 21V16.9L10.7 17.1C11.2531 17.0693 11.7766 16.8399 12.1742 16.4541C12.5717 16.0683 12.8167 15.552 12.864 15V9.30001C12.8706 7.85936 12.3047 6.47507 11.2907 5.45169C10.2767 4.4283 8.89766 3.84964 7.457 3.84301C6.01634 3.83638 4.63206 4.40232 3.60867 5.41633C2.58529 6.43034 2.00663 7.80936 2 9.25001C2 12.05 2.656 12.304 3 13.8C3.23248 14.7035 3.24243 15.6499 3.029 16.558L2 21M19.8 18.8C21.2058 17.394 21.9958 15.4874 21.9964 13.4991C21.997 11.5109 21.208 9.60379 19.803 8.19701M17 16C17.3272 15.6729 17.5863 15.2842 17.7622 14.8563C17.9382 14.4285 18.0277 13.9699 18.0253 13.5073C18.023 13.0447 17.929 12.5871 17.7487 12.161C17.5684 11.7349 17.3054 11.3488 16.975 11.025" stroke="#334155" stroke-width="2" stroke-linecap="round" stroke-linejoin="round"/>
<path d="M34.642 20H32.392L36.4886 8.36364H39.0909L43.1932 20H40.9432L37.8352 10.75H37.7443L34.642 20ZM34.7159 15.4375H40.8523V17.1307H34.7159V15.4375ZM50.8622 11.5625C50.8092 11.0663 50.5857 10.6799 50.1918 10.4034C49.8016 10.1269 49.294 9.98864 48.669 9.98864C48.2296 9.98864 47.8527 10.0549 47.5384 10.1875C47.224 10.3201 46.9834 10.5 46.8168 10.7273C46.6501 10.9545 46.5649 11.214 46.5611 11.5057C46.5611 11.7481 46.616 11.9583 46.7259 12.1364C46.8395 12.3144 46.9929 12.4659 47.1861 12.5909C47.3793 12.7121 47.5933 12.8144 47.8281 12.8977C48.063 12.9811 48.2997 13.0511 48.5384 13.108L49.6293 13.3807C50.0687 13.483 50.491 13.6212 50.8963 13.7955C51.3054 13.9697 51.6709 14.1894 51.9929 14.4545C52.3187 14.7197 52.5762 15.0398 52.7656 15.4148C52.955 15.7898 53.0497 16.2292 53.0497 16.733C53.0497 17.4148 52.8755 18.0152 52.527 18.5341C52.1785 19.0492 51.6747 19.4527 51.0156 19.7443C50.3603 20.0322 49.5668 20.1761 48.6349 20.1761C47.7296 20.1761 46.9437 20.036 46.277 19.7557C45.6141 19.4754 45.0952 19.0663 44.7202 18.5284C44.349 17.9905 44.1482 17.3352 44.1179 16.5625H46.1918C46.2221 16.9678 46.3471 17.3049 46.5668 17.5739C46.7865 17.8428 47.0724 18.0436 47.4247 18.1761C47.7808 18.3087 48.1785 18.375 48.6179 18.375C49.0762 18.375 49.4777 18.3068 49.8224 18.1705C50.1709 18.0303 50.4437 17.8371 50.6406 17.5909C50.8376 17.3409 50.938 17.0492 50.9418 16.7159C50.938 16.4129 50.849 16.1629 50.6747 15.9659C50.5005 15.7652 50.2562 15.5985 49.9418 15.4659C49.6312 15.3295 49.2675 15.2083 48.8509 15.1023L47.527 14.7614C46.5687 14.5152 45.8111 14.142 45.2543 13.642C44.7012 13.1383 44.4247 12.4697 44.4247 11.6364C44.4247 10.9508 44.6103 10.3504 44.9815 9.83523C45.3565 9.32008 45.866 8.92045 46.5099 8.63636C47.1539 8.34848 47.883 8.20455 48.6974 8.20455C49.5232 8.20455 50.2467 8.34848 50.8679 8.63636C51.4929 8.92045 51.9834 9.31629 52.3395 9.82386C52.6955 10.3277 52.8793 10.9072 52.8906 11.5625H50.8622ZM54.929 20V8.36364H57.0369V13.7102H57.179L61.7188 8.36364H64.2926L59.7926 13.5852L64.3324 20H61.7983L58.3267 15.0114L57.0369 16.5341V20H54.929ZM79.2884 8.36364V20H77.4134L71.9304 12.0739H71.8338V20H69.7259V8.36364H71.6122L77.0895 16.2955H77.1918V8.36364H79.2884ZM91.983 14.1818C91.983 15.4356 91.7481 16.5095 91.2784 17.4034C90.8125 18.2936 90.1761 18.9754 89.3693 19.4489C88.5663 19.9223 87.6553 20.1591 86.6364 20.1591C85.6174 20.1591 84.7045 19.9223 83.8977 19.4489C83.0947 18.9716 82.4583 18.2879 81.9886 17.3977C81.5227 16.5038 81.2898 15.4318 81.2898 14.1818C81.2898 12.928 81.5227 11.8561 81.9886 10.9659C82.4583 10.072 83.0947 9.38826 83.8977 8.91477C84.7045 8.44129 85.6174 8.20455 86.6364 8.20455C87.6553 8.20455 88.5663 8.44129 89.3693 8.91477C90.1761 9.38826 90.8125 10.072 91.2784 10.9659C91.7481 11.8561 91.983 12.928 91.983 14.1818ZM89.8636 14.1818C89.8636 13.2992 89.7254 12.5549 89.4489 11.9489C89.1761 11.339 88.7973 10.8788 88.3125 10.5682C87.8277 10.2538 87.2689 10.0966 86.6364 10.0966C86.0038 10.0966 85.4451 10.2538 84.9602 10.5682C84.4754 10.8788 84.0947 11.339 83.8182 11.9489C83.5455 12.5549 83.4091 13.2992 83.4091 14.1818C83.4091 15.0644 83.5455 15.8106 83.8182 16.4205C84.0947 17.0265 84.4754 17.4867 84.9602 17.8011C85.4451 18.1117 86.0038 18.267 86.6364 18.267C87.2689 18.267 87.8277 18.1117 88.3125 17.8011C88.7973 17.4867 89.1761 17.0265 89.4489 16.4205C89.7254 15.8106 89.8636 15.0644 89.8636 14.1818ZM92.9489 10.1307V8.36364H102.233V10.1307H98.6364V20H96.5455V10.1307H92.9489ZM104.023 20V8.36364H111.591V10.1307H106.131V13.2898H111.199V15.0568H106.131V18.233H111.636V20H104.023ZM120.065 11.5625C120.012 11.0663 119.789 10.6799 119.395 10.4034C119.005 10.1269 118.497 9.98864 117.872 9.98864C117.433 9.98864 117.056 10.0549 116.741 10.1875C116.427 10.3201 116.187 10.5 116.02 10.7273C115.853 10.9545 115.768 11.214 115.764 11.5057C115.764 11.7481 115.819 11.9583 115.929 12.1364C116.043 12.3144 116.196 12.4659 116.389 12.5909C116.582 12.7121 116.796 12.8144 117.031 12.8977C117.266 12.9811 117.503 13.0511 117.741 13.108L118.832 13.3807C119.272 13.483 119.694 13.6212 120.099 13.7955C120.509 13.9697 120.874 14.1894 121.196 14.4545C121.522 14.7197 121.779 15.0398 121.969 15.4148C122.158 15.7898 122.253 16.2292 122.253 16.733C122.253 17.4148 122.079 18.0152 121.73 18.5341C121.382 19.0492 120.878 19.4527 120.219 19.7443C119.563 20.0322 118.77 20.1761 117.838 20.1761C116.933 20.1761 116.147 20.036 115.48 19.7557C114.817 19.4754 114.298 19.0663 113.923 18.5284C113.552 17.9905 113.351 17.3352 113.321 16.5625H115.395C115.425 16.9678 115.55 17.3049 115.77 17.5739C115.99 17.8428 116.276 18.0436 116.628 18.1761C116.984 18.3087 117.382 18.375 117.821 18.375C118.279 18.375 118.681 18.3068 119.026 18.1705C119.374 18.0303 119.647 17.8371 119.844 17.5909C120.041 17.3409 120.141 17.0492 120.145 16.7159C120.141 16.4129 120.052 16.1629 119.878 15.9659C119.704 15.7652 119.459 15.5985 119.145 15.4659C118.834 15.3295 118.471 15.2083 118.054 15.1023L116.73 14.7614C115.772 14.5152 115.014 14.142 114.457 13.642C113.904 13.1383 113.628 12.4697 113.628 11.6364C113.628 10.9508 113.813 10.3504 114.185 9.83523C114.56 9.32008 115.069 8.92045 115.713 8.63636C116.357 8.34848 117.086 8.20455 117.901 8.20455C118.726 8.20455 119.45 8.34848 120.071 8.63636C120.696 8.92045 121.187 9.31629 121.543 9.82386C121.899 10.3277 122.082 10.9072 122.094 11.5625H120.065Z" fill="#334155"/>
</svg>
